<?xml version="1.0" encoding="UTF-8" standalone="no"?>
<svg
   xmlnsDc="http://purl.org/dc/elements/1.1/"
   xmlnsCc="http://creativecommons.org/ns#"
   xmlnsRdf="http://www.w3.org/1999/02/22-rdf-syntax-ns#"
   xmlnsSvg="http://www.w3.org/2000/svg"
   xmlns="http://www.w3.org/2000/svg"
   id="svg859"
   version="1.1"
   viewBox="32 32"
   height="50mm"
   width="50mm">
  <defs
     id="defs853">
    <clipPath
       clipPathUnits="userSpaceOnUse"
       id="clipPath1420">
      <path
         d="M 0,1080 H 1920 V 0 H 0 Z"
         id="path1418" />
    </clipPath>
    <clipPath
       clipPathUnits="userSpaceOnUse"
       id="clipPath1428">
      <path
         d="M 2.31224,1078.65 H 1921.71 V 0.354599 H 2.31224 Z"
         id="path1426" />
    </clipPath>
    <radialGradient
       fx="0"
       fy="0"
       cx="0"
       cy="0"
       r="1"
       gradientUnits="userSpaceOnUse"
       gradientTransform="matrix(2279.4458,0,0,1280.5419,962.0127,539.50366)"
       spreadMethod="pad"
       id="radialGradient1438">
      <stop
         style="stop-opacity:1;stop-color:#ffffff"
         offset="0"
         id="stop1434" />
      <stop
         style="stop-opacity:1;stop-color:#000000"
         offset="1"
         id="stop1436" />
    </radialGradient>
    <clipPath
       clipPathUnits="userSpaceOnUse"
       id="clipPath1460">
      <path
         d="M 1.52588e-5,1083.19 H 1921.71 V -3.05673 H 1.52588e-5 Z"
         id="path1458" />
    </clipPath>
    <radialGradient
       fx="0"
       fy="0"
       cx="0"
       cy="0"
       r="1"
       gradientUnits="userSpaceOnUse"
       gradientTransform="matrix(2282.1917,0,0,1289.9785,960.85657,540.06549)"
       spreadMethod="pad"
       id="radialGradient1470">
      <stop
         style="stop-opacity:1;stop-color:#ffffff"
         offset="0"
         id="stop1466" />
      <stop
         style="stop-opacity:1;stop-color:#000000"
         offset="1"
         id="stop1468" />
    </radialGradient>
    <clipPath
       clipPathUnits="userSpaceOnUse"
       id="clipPath1492">
      <path
         d="M 11.7831,1078.21 H 1910.67 V 42.0222 H 11.7831 Z"
         id="path1490" />
    </clipPath>
    <clipPath
       clipPathUnits="userSpaceOnUse"
       id="clipPath1496">
      <path
         d="M 11.7831,1017.59 H 1879.91 V 42.0222 H 11.7831 Z"
         id="path1494" />
    </clipPath>
    <clipPath
       clipPathUnits="userSpaceOnUse"
       id="clipPath1500">
      <path
         d="M 121.596,1078.21 H 1910.67 V 117.8 H 121.596 Z"
         id="path1498" />
    </clipPath>
    <clipPath
       clipPathUnits="userSpaceOnUse"
       id="clipPath2268">
      <path
         d="M 0,1080 H 1920 V 0 H 0 Z"
         id="path2266" />
    </clipPath>
    <clipPath
       clipPathUnits="userSpaceOnUse"
       id="clipPath2280">
      <path
         d="m 1609.83,82.2588 h 26.48 V 63.5831 h -26.48 z"
         id="path2278" />
    </clipPath>
    <clipPath
       clipPathUnits="userSpaceOnUse"
       id="clipPath2296">
      <path
         d="m 1600.18,103.19 h 22.86 V 76.7676 h -22.86 z"
         id="path2294" />
    </clipPath>
    <clipPath
       clipPathUnits="userSpaceOnUse"
       id="clipPath2312">
      <path
         d="m 1618.19,89.9323 h 22.12 V 63.6456 h -22.12 z"
         id="path2310" />
    </clipPath>
    <clipPath
       clipPathUnits="userSpaceOnUse"
       id="clipPath2328">
      <path
         d="m 1604.2,103.117 h 26.46 V 84.441 h -26.46 z"
         id="path2326" />
    </clipPath>
    <clipPath
       clipPathUnits="userSpaceOnUse"
       id="clipPath2474">
      <path
         d="M 0,1080 H 1920 V 0 H 0 Z"
         id="path2472" />
    </clipPath>
    <clipPath
       clipPathUnits="userSpaceOnUse"
       id="clipPath2482">
      <path
         d="M 1258.575,-1094.026 926.826,-9.01 H 0 v -1085.016 z"
         id="path2480" />
    </clipPath>
    <clipPath
       clipPathUnits="userSpaceOnUse"
       id="clipPath2490">
      <path
         d="M -307.943,-1106.382 H 1369.67 V 12.027 H -307.943 Z"
         id="path2488" />
    </clipPath>
  </defs>
  <metadata
     id="metadata856">
  </metadata>
  <g
     transform="translate(-535.59399,-20.808825)"
     id="layer1">
    <path
       d="m 596.82737,86.620206 c -3.08045,0 -5.97782,-1.19944 -8.15622,-3.37679 l -11.77678,-11.77713 c -0.82691,-0.82903 -2.26801,-0.82656 -3.09456,0 l -11.81982,11.82017 c -2.17841,2.17734 -5.07577,3.37679 -8.15623,3.37679 h -2.32092 l 14.9158,14.915444 c 4.65807,4.65808 12.21069,4.65808 16.86912,0 l 14.95813,-14.958484 z"
       style="fill:#32bcad;fill-opacity:1;fill-rule:nonzero;stroke:none;stroke-width:0.35277778"
       id="path2376" />
    <path
       d="m 553.82362,44.963326 c 3.08046,0 5.97782,1.19944 8.15622,3.37679 l 11.81982,11.82193 c 0.85125,0.85161 2.2412,0.85479 3.09457,-10e-4 l 11.77678,-11.77784 c 2.1784,-2.17735 5.07576,-3.37679 8.15622,-3.37679 h 1.41852 l -14.95778,-14.95813 c -4.65878,-4.658432 -12.2114,-4.658432 -16.86948,0 l -14.91509,14.91509 z"
       style="fill:#32bcad;fill-opacity:1;fill-rule:nonzero;stroke:none;stroke-width:0.35277778"
       id="path2380" />
    <path
       d="m 610.61844,57.378776 -9.03922,-9.03922 c -0.19897,0.0797 -0.41452,0.12946 -0.64206,0.12946 h -4.10986 c -2.12478,0 -4.20476,0.86184 -5.70618,2.36432 l -11.77643,11.77678 c -1.10207,1.10208 -2.55022,1.65347 -3.99697,1.65347 -1.44815,0 -2.89524,-0.55139 -3.99697,-1.65241 l -11.82088,-11.82088 c -1.50142,-1.50283 -3.5814,-2.36431 -5.70618,-2.36431 h -5.05354 c -0.21555,0 -0.41698,-0.0508 -0.60713,-0.12242 l -9.07521,9.07521 c -4.65843,4.65843 -4.65843,12.2107 0,16.86913 l 9.07486,9.07485 c 0.1905,-0.0716 0.39193,-0.12241 0.60748,-0.12241 h 5.05354 c 2.12478,0 4.20476,-0.86148 5.70618,-2.36396 l 11.81982,-11.81982 c 2.13643,-2.13466 5.8607,-2.13537 7.995,0.001 l 11.77643,11.77573 c 1.50142,1.50248 3.5814,2.36431 5.70618,2.36431 h 4.10986 c 0.22754,0 0.44309,0.0497 0.64206,0.12947 l 9.03922,-9.03922 c 4.65808,-4.65843 4.65808,-12.2107 0,-16.86913"
       style="fill:#32bcad;fill-opacity:1;fill-rule:nonzero;stroke:none;stroke-width:0.35277778"
       id="path2384" />
   
  </g>
</svg>
