<?xml version="1.0" encoding="iso-8859-1"?>
<!-- Generator: Adobe Illustrator 19.0.0, SVG Export Plug-In . SVG Version: 6.00 Build 0)  -->
<svg version="1.1" id="Layer_1" xmlns="http://www.w3.org/2000/svg" xmlns:xlink="http://www.w3.org/1999/xlink" x="0px" y="0px"
	 viewBox="0 0 512 512" style="enable-background:new 0 0 512 512;" xml:space="preserve">
<g>
	<g>
		<path d="M509.068,297.435C436.242,191.1,418.305,97.874,413.199,85.966c-7.935-18.513-26.076-30.476-46.218-30.476h-78.462
			c-9.257,0-16.761,7.504-16.761,16.761c0,8.962-6.882,16.218-15.758,16.732c-8.874-0.514-15.758-7.772-15.758-16.732
			c0-9.257-7.505-16.761-16.761-16.761h-78.462c-20.142,0-38.283,11.963-46.217,30.476c-0.263,0.613-0.489,1.241-0.677,1.883
			C87.044,125.608,66.049,205.277,2.933,297.435c-4.836,7.061-3.576,16.63,2.923,22.198c20.568,17.623,53.229,35.346,84.897,40.375
			c-5.16,13.696-10.719,27.252-16.676,40.656c-3.857,8.679,0.268,18.839,9.091,22.37c55.202,22.081,113.338,33.343,172.869,33.476
			c59.456-0.133,117.592-11.395,172.796-33.476c8.82-3.529,12.95-13.686,9.091-22.37c-5.957-13.403-11.517-26.961-16.677-40.657
			c31.667-5.031,64.331-22.753,84.898-40.374C512.643,314.066,513.903,304.496,509.068,297.435z M409.886,327.629
			c-16.162-49.595-27.202-100.825-32.937-153.068c-1.01-9.202-9.279-15.84-18.49-14.832c-9.201,1.01-15.843,9.289-14.831,18.49
			c8.325,75.854,27.543,150.152,56.64,219.775c-46.399,16.484-94.854,24.886-144.231,24.996
			c-49.444-0.111-97.906-8.512-144.306-24.996c29.04-69.487,48.3-143.774,56.64-219.775c1.009-9.202-5.632-17.48-14.832-18.49
			c-9.188-1.002-17.48,5.632-18.49,14.832c-5.732,52.242-16.772,103.471-32.934,153.067c-20.178-1.764-44.329-12.173-62.653-24.53
			c54.784-84.081,75.518-153.637,90.498-204.684c2.8-5.739,8.623-9.402,15.059-9.402h64.517c6.671,19.124,24.495,32.869,45.971,33.5
			c0.328,0.009,0.657,0.009,0.986,0c21.475-0.631,39.3-14.375,45.97-33.5h64.517c6.436,0,12.259,3.664,15.06,9.403
			c18.879,64.332,39.847,126.944,90.498,204.683C454.214,315.453,430.061,325.866,409.886,327.629z" fill='#7c3aed'/>
	</g>
</g>
<g>
</g>
<g>
</g>
<g>
</g>
<g>
</g>
<g>
</g>
<g>
</g>
<g>
</g>
<g>
</g>
<g>
</g>
<g>
</g>
<g>
</g>
<g>
</g>
<g>
</g>
<g>
</g>
<g>
</g>
</svg>
